PathFileType	4	(x/y/z)	S02_P20_T24
DataRate	CameraRate	NumFrames	NumMarkers	Units	OrigDataRate	OrigDataStartFrame	OrigNumFrames
240	240	8	51	mm	240	133	353
Frame#	Time	Sternum			R.Acromium			L.Acromium			Top.Head			R.ASIS			L.ASIS			R.PSIS			L.PSIS			R.Great.Tro			L.Great.Tro			R.Iliac.Crest			L.Iliac.Crest			V.Sacral			R.Thigh.Upper.Post			R.Thigh.Lower.Ant			R.Thigh.Lower.Post			R.Thigh.Upper.Ant			R.Knee.Lat			R.Knee.Med			R.Shank.Upper.Post			R.Shank.Lower.Ant			R.Shank.Lower.Post			R.Shank.Upper.Ant			R.Ankle.Lat			R.Ankle.Med			R.Heel.Upper			R.Heel.Med			R.Heel.Lat			R.Toe.Lat			R.Toe.Med			R.Toe.Tip			L.Thigh.Upper.Post			L.Thigh.Lower.Ant			L.Thigh.Lower.Post			L.Thigh.Upper.Ant			L.Knee.Lat			L.Knee.Med			L.Shank.Upper.Post			L.Shank.Lower.Ant			L.Shank.Lower.Post			L.Shank.Upper.Ant			L.Ankle.Lat			L.Ankle.Med			L.Heel.Upper			L.Heel.Med			L.Heel.Lat			L.Toe.Lat			L.Toe.Med			L.Toe.Tip			Cervical.Spine			Back			
		X1	Y1	Z1	X2	Y2	Z2	X3	Y3	Z3	X4	Y4	Z4	X5	Y5	Z5	X6	Y6	Z6	X7	Y7	Z7	X8	Y8	Z8	X9	Y9	Z9	X10	Y10	Z10	X11	Y11	Z11	X12	Y12	Z12	X13	Y13	Z13	X14	Y14	Z14	X15	Y15	Z15	X16	Y16	Z16	X17	Y17	Z17	X18	Y18	Z18	X19	Y19	Z19	X20	Y20	Z20	X21	Y21	Z21	X22	Y22	Z22	X23	Y23	Z23	X24	Y24	Z24	X25	Y25	Z25	X26	Y26	Z26	X27	Y27	Z27	X28	Y28	Z28	X29	Y29	Z29	X30	Y30	Z30	X31	Y31	Z31	X32	Y32	Z32	X33	Y33	Z33	X34	Y34	Z34	X35	Y35	Z35	X36	Y36	Z36	X37	Y37	Z37	X38	Y38	Z38	X39	Y39	Z39	X40	Y40	Z40	X41	Y41	Z41	X42	Y42	Z42	X43	Y43	Z43	X44	Y44	Z44	X45	Y45	Z45	X46	Y46	Z46	X47	Y47	Z47	X48	Y48	Z48	X49	Y49	Z49	X50	Y50	Z50	X51	Y51	Z51	

133	0.55	-584.22	1061	338.77	-700.93	1297.7	482.71	-682.1	1300.7	188.3	-628.18	1587.7	328.51	-619.03	893.24	425.99	-619.4	877.06	213.84	-834.35	930.81	381.88	-842.31	934.1	309.03	-665.74	791.92	518.31	-763.11	798.87	133.99	-716.31	938.48	491.39	-744.69	931.25	154.05	-862.62	883.93	341.89	-570.83	606.07	488.76	-494.75	558.77	439.81	-551.43	520.35	465.7	-519.1	642.9	460.67	-505.41	459.17	444.73	-534.46	444.48	304.46	-564.6	248.84	439.54	-487.25	174.73	411.67	-552.85	176.75	428.16	-493.31	243.12	428.12	-533.81	87.098	413.34	-529.3	99.387	328.04	-595.66	69.778	360.61	-580.2	38.468	333.4	-589.38	39.2	396.95	-426.41	42.728	434.13	-396.61	35.856	326.63	-349.21	66.937	380.09	-825.12	582.58	174.02	-763.5	490.93	167.68	-838.7	494.88	195.46	-756.62	584.53	149.73	-801.23	415.48	177.52	-791.19	409.96	315.11	-967.62	326.03	184.39	-938.88	222.25	195.15	-1017.2	268.97	202.42	-924.64	276.92	182.31	-1066.9	160.74	216.13	-1056.3	153.61	297.14	-1136.9	161.38	251.75	-1140	137.29	286.85	-1146.4	133.49	225.56	-1013.3	42.993	194.3	-989.3	49.158	302.92	-932.04	46.681	257.27	-768.01	1366.2	332.22	-845.33	1114.2	324.59
134	0.55417	-578.44	1061.4	339.19	-694.82	1297.7	483.61	-676.83	1301.1	189.2	-622.56	1587.9	329.34	-613.11	893.66	426.54	-613.54	877.36	214.54	-828.6	931.04	381.97	-836.24	934.1	309.06	-659.8	792.51	518.87	-756.59	798.16	134.31	-710.48	938.88	491.73	-738.5	931.6	154.37	-856.68	884.01	342.04	-565.47	606.18	489.04	-489.48	558.76	440.1	-546.25	520.43	465.93	-513.63	642.92	461.08	-500.19	459.11	444.62	-529.31	445.05	304.4	-561.8	249.2	439.72	-485.48	174.11	411.47	-550.99	176.98	428.3	-490.62	242.57	427.98	-533.51	87.097	413.29	-529.04	99.315	328.05	-595.59	70.027	360.63	-580.29	38.632	333.41	-589.44	39.413	396.96	-426.41	42.35	434.05	-396.57	35.162	326.48	-348.97	66.019	379.94	-816.69	581.2	174.26	-754.15	490.23	167.24	-829.28	493.29	195.37	-748.3	583.98	149.73	-791.45	414.64	176.74	-780.5	408.52	314.3	-959.55	328.02	184.58	-933.45	223.92	194.74	-1008.9	272.34	202.17	-917.18	278.22	181.79	-1061.1	164.7	216	-1050.4	157.28	296.92	-1130.4	167.8	251.87	-1134.4	144.11	287.16	-1141.2	140.35	225.88	-1012.1	44.886	194.32	-987.53	50.342	302.8	-931.14	46.025	257.12	-762.4	1366.4	333.4	-839.64	1114.4	325.68
135	0.55833	-572.69	1061.9	339.62	-688.73	1297.9	484.49	-671.57	1301.5	190.09	-616.94	1588.2	330.17	-607.23	894.22	427.09	-607.73	877.73	215.25	-822.86	931.34	382.05	-830.21	934.17	309.09	-653.93	793.16	519.44	-750.08	797.49	134.66	-704.72	939.37	492.05	-732.36	932.01	154.72	-850.77	884.16	342.19	-560.23	606.3	489.38	-484.34	558.71	440.44	-541.23	520.52	466.21	-508.25	642.92	461.53	-495.16	459.01	444.58	-524.19	445.59	304.39	-559.15	249.54	439.93	-483.83	173.51	411.33	-549.26	177.19	428.47	-488.07	242.02	427.91	-533.25	87.107	413.26	-528.82	99.273	328.12	-595.55	70.243	360.67	-580.38	38.788	333.44	-589.5	39.59	396.99	-426.43	42.04	434	-396.55	34.609	326.36	-348.77	65.261	379.84	-808.14	579.85	174.41	-744.64	489.61	166.73	-819.69	491.73	195.18	-739.87	583.48	149.67	-781.47	413.84	175.87	-769.55	407.12	313.42	-951.13	330.08	184.75	-928.09	225.61	194.39	-1000.5	275.74	201.99	-909.47	279.62	181.25	-1055	168.79	215.88	-1044.1	161.03	296.71	-1123.5	174.37	252.03	-1128.4	151.11	287.52	-1135.6	147.42	226.24	-1010.6	47.002	194.36	-985.49	51.679	302.66	-930.06	45.356	256.9	-756.79	1366.7	334.56	-833.97	1114.7	326.74
136	0.5625	-566.97	1062.4	340.05	-682.65	1298.1	485.35	-666.33	1302	190.98	-611.32	1588.6	331.01	-601.4	894.89	427.65	-601.96	878.17	215.98	-817.13	931.7	382.13	-824.24	934.33	309.12	-648.13	793.86	520	-743.59	796.86	135.05	-699.02	939.95	492.34	-726.27	932.46	155.09	-844.89	884.37	342.33	-555.12	606.4	489.77	-479.35	558.62	440.83	-536.36	520.58	466.54	-502.99	642.88	462.04	-490.35	458.85	444.62	-519.13	446.09	304.45	-556.64	249.83	440.18	-482.29	172.93	411.25	-547.63	177.38	428.66	-485.69	241.48	427.9	-533.04	87.123	413.26	-528.62	99.254	328.23	-595.53	70.426	360.72	-580.45	38.935	333.48	-589.56	39.733	397.04	-426.46	41.787	433.99	-396.54	34.178	326.28	-348.61	64.642	379.78	-799.47	578.53	174.5	-734.98	489.05	166.14	-809.95	490.2	194.92	-731.33	583.05	149.54	-771.3	413.11	174.94	-758.33	405.78	312.48	-942.36	332.22	184.9	-922.76	227.34	194.09	-991.83	279.15	201.9	-901.51	281.11	180.68	-1048.5	172.97	215.78	-1037.5	164.86	296.51	-1116.2	181.06	252.22	-1121.9	158.25	287.92	-1129.6	154.67	226.64	-1008.9	49.344	194.41	-983.14	53.175	302.51	-928.76	44.683	256.63	-751.2	1367.1	335.7	-828.31	1115	327.77
137	0.56667	-561.29	1063.1	340.47	-676.6	1298.5	486.18	-661.1	1302.6	191.86	-605.69	1589	331.84	-595.61	895.67	428.21	-596.23	878.66	216.71	-811.42	932.11	382.21	-818.33	934.56	309.16	-642.4	794.6	520.55	-737.12	796.28	135.48	-693.38	940.6	492.62	-720.26	932.95	155.48	-839.05	884.65	342.46	-550.15	606.49	490.21	-474.53	558.47	441.29	-531.69	520.62	466.92	-497.84	642.79	462.59	-485.78	458.62	444.74	-514.14	446.52	304.57	-554.29	250.07	440.46	-480.87	172.35	411.22	-546.11	177.54	428.86	-483.45	240.93	427.94	-532.86	87.141	413.29	-528.44	99.253	328.37	-595.53	70.579	360.8	-580.53	39.07	333.52	-589.61	39.844	397.08	-426.49	41.583	434	-396.54	33.851	326.23	-348.48	64.145	379.77	-790.71	577.25	174.5	-725.2	488.57	165.48	-800.08	488.72	194.57	-722.7	582.68	149.35	-760.97	412.44	173.95	-746.87	404.52	311.47	-933.24	334.43	185.03	-917.39	229.12	193.84	-982.99	282.55	201.89	-893.31	282.7	180.08	-1041.7	177.25	215.69	-1030.4	168.76	296.33	-1108.4	187.84	252.46	-1114.8	165.51	288.36	-1123	162.07	227.07	-1006.9	51.912	194.48	-980.46	54.833	302.35	-927.22	44.016	256.29	-745.62	1367.5	336.81	-822.66	1115.4	328.78
138	0.57083	-555.63	1063.7	340.9	-670.57	1298.9	486.98	-655.9	1303.2	192.73	-600.07	1589.4	332.68	-589.86	896.55	428.79	-590.56	879.22	217.45	-805.73	932.58	382.3	-812.47	934.87	309.22	-636.74	795.38	521.11	-730.69	795.74	135.95	-687.8	941.33	492.9	-714.32	933.47	155.91	-833.26	884.99	342.61	-545.33	606.55	490.7	-469.88	558.25	441.79	-527.21	520.63	467.35	-492.82	642.64	463.19	-481.49	458.32	444.97	-509.28	446.85	304.76	-552.09	250.27	440.77	-479.54	171.78	411.24	-544.71	177.67	429.08	-481.36	240.38	428.04	-532.71	87.16	413.34	-528.27	99.266	328.54	-595.53	70.703	360.88	-580.59	39.194	333.57	-589.65	39.927	397.14	-426.53	41.42	434.03	-396.54	33.612	326.2	-348.38	63.753	379.78	-781.87	576.01	174.45	-715.31	488.19	164.76	-790.09	487.29	194.14	-714.01	582.39	149.09	-750.49	411.84	172.9	-735.17	403.34	310.41	-923.8	336.71	185.13	-911.92	230.95	193.64	-973.96	285.95	201.96	-884.87	284.38	179.46	-1034.5	181.59	215.62	-1023	172.72	296.17	-1100.1	194.67	252.74	-1107.4	172.84	288.85	-1116	169.57	227.55	-1004.6	54.702	194.56	-977.44	56.653	302.16	-925.41	43.371	255.87	-740.05	1367.9	337.89	-817.03	1115.9	329.78
139	0.575	-550.01	1064.5	341.31	-664.56	1299.4	487.75	-650.73	1303.8	193.58	-594.45	1589.9	333.51	-584.16	897.52	429.37	-584.93	879.82	218.19	-800.07	933.09	382.4	-806.67	935.24	309.3	-631.16	796.18	521.65	-724.3	795.25	136.46	-682.27	942.11	493.18	-708.46	934.01	156.36	-827.51	885.38	342.77	-540.67	606.58	491.22	-465.41	557.95	442.34	-522.94	520.6	467.81	-487.93	642.42	463.83	-477.48	457.94	445.29	-504.57	447.08	305.03	-550.03	250.43	441.08	-478.32	171.21	411.3	-543.4	177.77	429.31	-479.42	239.82	428.18	-532.59	87.176	413.4	-528.12	99.289	328.74	-595.54	70.801	360.98	-580.64	39.305	333.63	-589.69	39.984	397.2	-426.57	41.289	434.07	-396.54	33.445	326.19	-348.3	63.447	379.82	-772.97	574.85	174.32	-705.35	487.89	163.98	-780.01	485.94	193.64	-705.26	582.18	148.78	-739.89	411.33	171.8	-723.27	402.26	309.31	-914.04	339.04	185.22	-906.26	232.87	193.47	-964.75	289.34	202.1	-876.21	286.15	178.84	-1027	186	215.56	-1015.2	176.7	296.02	-1091.4	201.51	253.05	-1099.4	180.19	289.36	-1108.6	177.12	228.06	-1002	57.703	194.66	-974.02	58.631	301.96	-923.3	42.763	255.38	-734.51	1368.4	338.94	-811.41	1116.4	330.75
140	0.57917	-544.41	1065.3	341.72	-658.58	1299.9	488.5	-645.59	1304.5	194.41	-588.84	1590.4	334.34	-578.5	898.57	429.95	-579.34	880.48	218.93	-794.45	933.66	382.53	-800.94	935.68	309.4	-625.64	797	522.2	-717.95	794.82	137	-676.78	942.95	493.46	-702.69	934.56	156.84	-821.8	885.83	342.96	-536.16	606.58	491.78	-461.12	557.58	442.94	-518.88	520.53	468.31	-483.17	642.14	464.5	-473.75	457.49	445.71	-500.07	447.18	305.38	-548.12	250.55	441.41	-477.19	170.65	411.4	-542.2	177.83	429.55	-477.61	239.26	428.37	-532.49	87.189	413.48	-527.97	99.32	328.96	-595.56	70.876	361.08	-580.69	39.406	333.69	-589.72	40.021	397.27	-426.6	41.186	434.13	-396.55	33.336	326.19	-348.23	63.214	379.87	-764.03	573.75	174.14	-695.33	487.71	163.15	-769.86	484.67	193.09	-696.48	582.05	148.41	-729.17	410.92	170.68	-711.17	401.3	308.18	-904	341.44	185.29	-900.34	234.88	193.33	-955.35	292.72	202.31	-867.33	288.01	178.21	-1019.1	190.44	215.52	-1007.1	180.71	295.89	-1082.2	208.34	253.39	-1091	187.53	289.91	-1100.8	184.69	228.6	-999.04	60.903	194.76	-970.2	60.761	301.72	-920.86	42.213	254.82	-728.98	1369	339.96	-805.8	1116.9	331.7
